<svg id="ezjq143mgDZ1" height="auto" width="auto" xmlns="http://www.w3.org/2000/svg"
    xmlns:xlink="http://www.w3.org/1999/xlink" viewBox="0 0 1792 1773" shape-rendering="geometricPrecision"
    text-rendering="geometricPrecision">
    <g id="ezjq143mgDZ2" transform="translate(.185248 39.00984)" opacity="100">
        <path
            d="M1.36728,739.004C6.85977,726.432,26.1996,724.686,38,722.754c34.8797-5.712,69.969-9.714,105-14.33c8.532-1.124,17.407-1.91,26-2.388c3.874-.216,9.287.094,11.914-3.35c4.164-5.457,5.594-15.169,7.51-21.686c3.456-11.751,7.899-23.417,11.92-35c14.07-40.528,28.825-80.898,44.08-121C293.597,395.735,346.903,265.831,418.2,147C445.166,102.056,476.176,53.5597,519,22.1552c21.606-15.84453,49.182-27.81499,76-18.10112C618.688,12.6344,635.113,33.105,646.244,55c18.621,36.629,28.238,77.482,33.886,118c16.037,115.038,9.723,231.667,1.781,347-3.281,47.642-13.779,96.3-13.911,144c32.711-.003,66.437-4.729,99-7.83c7.49-.714,29.025,1.825,33.914-4.488c7.81-10.083,9.945-30.478,13.51-42.682c7.849-26.861,16.811-53.899,29.329-79c6.676-13.386,14.47-31.676,30.247-36.211c39.735-11.42,34.569,45.013,27.974,66.211-7.978,25.647-22.427,50.981-40.26,70.996-6.794,7.626-20.597,12.525-25.436,21.047-4.607,8.113-6.156,19.035-8.699,27.957-7.355,25.798-11.139,53.979-20.579,79c15.91-15.225,34.408-28.179,52-41.373c38.672-29.005,79.707-56.225,123-77.874c12.796-6.399,26.37-11.507,39-18.151c8.09-4.258,16.8-9.173,24.81-1.388c9.96,9.683,2.37,24.554-.44,35.786-7.24,28.986-15.01,61.009-15.37,91-.11,9.856-1,20.384,1.48,30c.99,3.85,2.46,9.737,7.54,9.063c6.42-.853,13.05-6.665,17.98-10.488c13.23-10.267,24.97-22.179,36.17-34.575c24.2-26.79,50.77-55.103,69.71-86c6.26-10.206,9.62-22.422,15.43-33c13.65-24.858,36.53-50.26,65.69-55.739c18.63-3.502,39.97-.849,56,9.844c9.93,6.625,14.45,21.363,2.98,29.192-15.42,10.532-33.48-11.649-50.98-7.397-34.41,8.357-53.39,49.884-60.87,81.1-2.5,10.451-6.89,29.721,1.52,38.681c8.35,8.904,26.3-11.516,31.34-16.681c14.47-14.836,25.45-33.051,35.59-51c3.69-6.532,6.03-15.17,10.84-20.895c5.52-6.572,16.86-6.723,23.39-1.456c8.89,7.162,4.49,21.832,3.19,31.351-3.93,28.686-8.18,57.356-12.42,86-11.52,77.82-22.36,155.9-31.74,234-4.58,38.22-13.05,77.5-13.84,116c27.55-13.06,51.56-31.05,77-47.66c3.76-2.45,21.85-16.27,25.78-10.73c2.34,3.31-2.14,8.04-4.04,10.39-6.46,8.01-13.66,15.3-20.45,23-22.94,26-48.19,50.08-73.29,73.96-7.78,7.41-20.84,21.97-33,15.86-10.66-5.36-10.07-18.84-8.95-28.82c2.92-25.97,6-52,8.78-78c7.84-73.169,18.4-146.153,28.9-219c5.64-39.167,8.01-80.546,17.27-119-21.67,21.854-64.96,59.037-92.21,21-3.9-5.448-5.98-11.631-7.79-18-24.65,26.786-45.84,55.729-74,79.246-12.84,10.724-29.33,23.046-47,22.7-22.79-.447-33.99-20.908-36.869-40.946-5.567-38.727,3.079-78.243,10.869-116-55.632,32.47-109.443,63.695-160,104.2-11.892,9.528-23.462,19.428-35,29.376-6.172,5.322-14.552,10.851-19.066,17.71-6.83,10.379-6.59,27.791-9.283,39.714-5.533,24.486-9.914,49.248-14.065,74-1.916,11.427-5.732,24.405-5.392,36c.187,6.362,4.669,13.176,7.006,19c4.856,12.105,9.368,24.45,12.94,37c16.569,58.21,30.111,121.18,24.029,182-2.436,24.36-5.632,53-24.184,70.96-15.507,15.01-41.985,14.49-55.456-2.96-9.848-12.76-13.067-30.5-15.609-46-9.182-55.98-1.519-117.13,5.365-173c2.178-17.68,4.387-35.36,6.845-53c1.12-8.033,4.294-17.926,3.31-26-2.034-16.687-24.305-38.556-38.44-45.623-11.714-5.858-32.33-2.409-29.341-22.377c1.816-12.129,19.115-25.395,27.302-34c15.622-16.419,30.998-32.959,47.039-49c8.329-8.329,18.391-15.776,25.721-25c6.279-7.9,7.24-22.35,9.652-32c6.402-25.604,11.469-51.587,18.627-77-12.618,3.004-27.05,2.202-40,3.089-18.67,1.281-37.369,2.961-56,4.741-7.317.699-27.062-1.558-32.397,3.773-4.722,4.721-3.911,22.788-4.653,29.397-2.851,25.395-7.059,50.63-10.105,76-11.269,93.869-27.616,188.282-46.045,281-5.497,27.66-10.324,55.45-16.376,83-1.98,9.02-2.394,23.56-11.464,28.56-12.517,6.9-24.773-3.34-23.869-16.56c2.135-31.2,12.772-64.2,18.712-95C594.465,957.149,614.677,828.16,631,699c-104.333,8.235-208.78,15.871-313,25.83-26.609,2.543-53.339,5.127-80,7.081-8.249.605-25.881-1.034-32.581,4.027-5.243,3.961-6.734,17.002-8.752,23.062-7.156,21.486-13.734,43.264-20.091,65-24.116,82.445-48.877,165.343-64.152,250-4.08,22.61-7.081,45.16-9.254,68-.843,8.86,2.362,19.76-4.3837,26.89-12.9656,13.7-26.5382-.18-28.3619-13.89-3.553-26.72,4.3146-58.75,9.3788-85c15.1227-78.396,36.2408-155.403,58.6208-232c9.719-33.264,22.772-66.265,30.576-100l-53,6.166L59,751c-2.5801,29.33-70.1847,16.734-57.63272-11.996ZM216,702c96.293-12.17,194.216-19.244,291-25.911c41.923-2.887,86.692-2.42,128-10.089.118-42.823,8.753-87.332,12.83-130c10.706-112.042,17.006-229.998,2.452-342-5.199-40.001-11.822-81.569-30.035-118C612.645,60.7952,602.821,43.2887,587,35.3781c-19.397-9.6985-40.392,4.6629-55,16.706C496.196,81.601,469.65,123.587,446,163C377.021,277.955,325.15,402.936,277.576,528c-13.251,34.834-25.774,69.895-38.268,105-8.025,22.549-17.911,45.67-23.308,69ZM749.08213,851.99866c-14.427,14.427-31.712,28.935-43,46l31,25l9.197-50l2.803-21Zm3,180c-.181,21.82-4.753,44.26-6.83,66-3.223,33.73-3.224,67.24-3.17,101c.021,13.22,1.355,28.55,6.066,41c1.3,3.44,3.641,10.53,7.976,11.08c5.262.66,8.259-7.32,9.754-11.08c5.157-12.96,7.293-26.23,8.918-40c4.782-40.51-2.338-84.37-10.314-124l-12.4-44Z"
            transform="translate(.000001 0)" fill="#000" />
        <path d="M1045,546.653c-19.22,6.057-8.91,36.472,11,30.709c20.7-5.993,9.91-37.297-11-30.709Z" fill="#000" />
    </g>
    <g id="ezjq143mgDZ5" transform="translate(-176.006165-85.276611)" opacity="100">
        <path
            d="M1560.41519,1479.27388c5.16-9.02,8.15-23.56,19.58-26.32c8.82-2.12,17.66,2.5,20.21,11.32c1.67,5.78-.3,11.23,0,17c.79,15.44,2.02,31.09,6.51,46c2.6,8.61,8.1,22.44,19.28,20.67c12.85-2.04,24.33-15,33-23.67c23.44-23.44,43.36-50.86,60.81-79c4.47-7.21,11.3-15.06,14.16-23c4.63-12.81,4.89-28.57,7.11-42c4.59-27.69,9.55-55.32,14.17-83c15.09-90.58,31.94-180.95,49.95-271c19.72-98.628,40.28-198.455,72.13-294c7.6-22.792,15.34-45.363,27.87-66c6.28-10.337,15.27-21.169,27.8-23.532c23.31-4.398,37.27,14.935,34.71,36.532-4.36,36.906-22.03,72.327-42.38,103-8.81,13.28-18.34,25.939-28.76,38-4.99,5.776-12.73,10.956-15.92,18-3.12,6.915-3.69,15.641-5.52,23-4.49,17.951-8.64,35.969-12.78,54-13.11,57.117-24.66,114.536-36.15,172-31.33,156.65-59.08,314.79-81.33,473-9.11,64.75-19.82,129.28-29.14,194-1.71,11.87-1.23,29.35-6.89,40-4.97,9.34-18.63,10.31-25.63,2.89-5.82-6.18-4.12-14.26-3.26-21.89c2.03-18.06,5.19-36.01,7.78-54c7.5-52.05,15.88-103.97,23.54-156c2.02-13.68,4.25-27.35,6.48-41c1.14-6.93,3.75-15.08,2.25-22-4.21,8.45-11.36,15.82-17.42,23-23.87,28.25-75.12,80.63-112.49,40.99-4.53-4.81-8.05-10.94-10.66-16.99-3.55-8.23-6.28-17.11-7.43-26h-1c-8.69,22.59-40.28,47.88-65,48-10.71.05-23.75-.98-29-12h-2c-4.12,8.84-14.07,16.22-21,22.99-26.23,25.58-76.13,58.66-108.56,22.92-25.29-27.87-23.04-66.39-37.44-98.91-5.39,11.54-12.47,22.26-17.58,34-10.93,25.13-20.64,52.88-37.18,75-10.48,14.02-31.34,22.01-44.91,6.91-9.94-11.08-9.33-28.07-9.33-41.91c0-30.71,4.86-61.44,1-92h-1c-4.91,13.41-13.91,26.38-20.69,39-8.761,16.3-15.627,33.98-22.889,51-10.121,23.72-20.141,47.41-30.561,71-5.132,11.62-9.184,24.6-16.649,35-9.218,12.85-27.518,12.93-36.216-1-5.915-9.47-5.995-23.2-5.995-34-55.088,50.74-119.841,92.52-198,77.2-19.233-3.78-37.494-11.8-54-22.25-6.804-4.31-16.255-15.1-25-13.52-9.109,1.65-13.588,13.27-17.247,20.57-10.212,20.37-20.026,40.86-28.552,62-3.974,9.85-6.66,25.23-19.201,26.81-10.557,1.34-18.166-5.12-18.903-15.81-1.071-15.54,5.263-33.66,7.823-49c11.961-71.69,22.87-145.61,41.08-216-30.58,5.68-65.886,8.74-97,9-10.863,85.96-23.265,171.95-39.999,257-4.053,20.6-6.05,43.09-12.79,63-2.663,7.86-11.417,12.55-19.196,8.54-8.472-4.36-7.302-13.74-5.591-21.54c4.216-19.23,8.194-38.59,11.495-58c13.902-81.74,32.548-164.23,39.081-247-21.295.06-42.763,3.45-64,4.91-47.366,3.26-94.727,7.4-142,11.92-16.977,1.62-34.02,2.7-51,4.34-5.089.49-14.521-.39-17.914,4.13-4.142,5.52-5.591,15.14-7.51,21.7-3.822,13.05-8.182,25.94-12,39-14.497,49.56-28.643,99.33-38.776,150-3.538,17.69-6.971,35.96-7.761,54-.323,7.38,1.285,16.64-7.054,20.3-9.1481,4.01-18.5556-1.47-19.7998-11.3-2.2402-17.7,2.1036-37.61,5.2392-55c8.469-46.97,21.0776-93.14,34.1546-139c7.402-25.96,13.476-54.31,24.421-79-18.913.39-44.9,1.36-62.892,7.28-6.8148,2.24-7.3004,10.24-16.108,10.68-10.4024.52-29.5718-.5-30.8951-13.96-1.259-12.8,9.2124-17.02,19.8951-19.34c23.7875-5.15,48.797-8.06,73-10.49c6.625-.67,22.76.94,26.722-5.32c6.009-9.48,7.768-23.33,11.702-33.85c10.561-28.25,20.275-56.8,31-85c32.76-86.12,68.435-173.73,117.526-252c17.418-27.77,36.799-57.2,64.05-76.279c14.901-10.43,33.051-17.152,51-10.856c40.547,14.222,51.931,74.075,57.271,111.135c10.977,76.18,6.902,153.58,1.639,230-2.126,30.88-8.272,62.08-8.91,93c23.709-5.64,49.841-3.25,74-6.42c5.603-.74,20.31.99,23.86-3.9c3.478-4.79,3.592-13.97,4.74-19.68c2.954-14.67,5.928-29.41,9.281-44c12.487-54.32,23.728-108.92,37.246-163c4.282-17.13,9.705-33.54,16.062-50c4.623-11.97,7.063-22.06,20.811-26.4c15.511-4.89,8.919,17.22,7.389,25.4-5.402,28.88-12.168,57.37-18.738,86-17.316,75.46-34.041,151.09-49.251,227-9.163,45.73-15.725,92.87-27.4,138h1c4.263-13.47,14.309-26.91,21.601-39c19.841-32.89,42.652-67.45,73.399-91.11c17.127-13.19,42.862-25.11,64-13.77c24.01,12.89,28.377,41.09,14.301,62.88-18.368,28.43-52.923,45.56-82.301,60.25-12.547,6.27-39.503,18.79-17.996,33.66c65.156,45.04,140.28,9.24,192.996-36.63c13.477-11.72,34.849-28.19,42.973-44.28c3.783-7.49,3.002-19.7,4.157-28c2.703-19.4,5.97-38.73,9.446-58c5.24-29.06,10.69-58.22,17.305-87c2.296-9.99,2.077-24.97,12.134-30.58c11.174-6.24,25.702,1.09,24.281,14.58-4.106,38.98-15.752,78.36-22.72,117-5.791,32.11-13.305,66.31-13.576,99h1c3.926-16.53,13.887-33.32,20.579-49c13.953-32.7,27.555-66.79,46.471-97c9.31-14.87,26.24-38.86,46.95-27.58c12.31,6.7,15.64,23.9,17.16,36.58c4.05,33.87-1.16,68.96-1.16,103h1c4.36-11.97,11.44-23.34,16.69-35c8.3-18.41,15.41-37.24,25.08-55c7.07-12.99,15.99-25.1,31.23-28.33c14.24-3.02,25.96,5.76,31.69,18.33c10.51,23.09,12.01,49.47,21.51,73c4.1,10.16,11.08,25.07,23.8,25.72c17.03.88,34.31-16.27,46-26.44c13.64-11.87,33.76-28.75,41.69-45.28c3.98-8.31,4.36-19.17,7.39-28c7.87-22.96,20.09-46.35,36.96-64c22.84-23.9,55.67-37.95,83.96-13.7c4.52,3.88,8.96,8.56,12.02,13.7c5.87,9.86,2.73,24.21-10.02,25.81-17.45,2.21-20.99-20.78-37-19.58-12,.89-23.32,14-30.11,22.77-18.96,24.47-31.89,54.9-31.89,86c27.43-1.26,47.5-39.16,59.42-60Zm-1199.33787,46c65.019-1.34,129.998-14.01,195-16.96c17.365-.79,34.646-3.16,52-4c4.706-.23,16.863.82,20.258-2.64c4.311-4.41,3.348-19.43,3.828-25.4c1.717-21.36,4.505-42.62,6.004-64c5.644-80.53,12.539-164-2.893-244-3.842-19.91-9.174-40.44-19.65-58-4.33-7.26-11.059-15.91-19.547-18.36-11.723-3.39-25.031,7.07-33,14.45-22.058,20.44-38.821,46.28-54.2,71.91-44.334,73.89-77.65,154.62-108.224,235l-39.576,112Zm459,95c24.964-8.5,50.945-24.49,71-41.44c5.415-4.58,18.003-16.39,13.218-24.54-7.081-12.08-22.275-2.44-30.218,3.46-20.148,14.97-43.168,39.62-54,62.52Z"
            transform="translate(.000001 0.000001)" fill="#000" />
    </g>
</svg>